<svg width="25" height="24" viewBox="0 0 25 24" fill="none" xmlns="http://www.w3.org/2000/svg">
<path d="M15.5 12L12.5 12M12.5 12L9.5 12M12.5 12L12.5 9M12.5 12L12.5 15" stroke="black" stroke-width="1.5" stroke-linecap="round"/>
<path d="M22.5 12C22.5 16.714 22.5 19.0711 21.0355 20.5355C19.5711 22 17.214 22 12.5 22C7.78595 22 5.42893 22 3.96447 20.5355C2.5 19.0711 2.5 16.714 2.5 12C2.5 7.28595 2.5 4.92893 3.96447 3.46447C5.42893 2 7.78595 2 12.5 2C17.214 2 19.5711 2 21.0355 3.46447C22.0093 4.43821 22.3356 5.80655 22.4449 8" stroke="black" stroke-width="1.5" stroke-linecap="round"/>
</svg>
