<svg width="24" height="21" viewBox="0 0 24 21" fill="none" xmlns="http://www.w3.org/2000/svg">
<circle cx="12" cy="5" r="4" stroke="#5C008A" stroke-width="1.5"/>
<path d="M18 8C19.6569 8 21 6.88071 21 5.5C21 4.11929 19.6569 3 18 3" stroke="#5C008A" stroke-width="1.5" stroke-linecap="round"/>
<path d="M6 8C4.34315 8 3 6.88071 3 5.5C3 4.11929 4.34315 3 6 3" stroke="#5C008A" stroke-width="1.5" stroke-linecap="round"/>
<ellipse cx="12" cy="16" rx="6" ry="4" stroke="#5C008A" stroke-width="1.5"/>
<path d="M20 18C21.7542 17.6153 23 16.6411 23 15.5C23 14.3589 21.7542 13.3847 20 13" stroke="#5C008A" stroke-width="1.5" stroke-linecap="round"/>
<path d="M4 18C2.24575 17.6153 1 16.6411 1 15.5C1 14.3589 2.24575 13.3847 4 13" stroke="#5C008A" stroke-width="1.5" stroke-linecap="round"/>
</svg>
