<svg width="22" height="22" viewBox="0 0 22 22" fill="none" xmlns="http://www.w3.org/2000/svg">
<path fill-rule="evenodd" clip-rule="evenodd" d="M8.09958 1.39754C8.24874 1.78396 8.05641 2.21814 7.66999 2.36731C7.52855 2.42191 7.38879 2.47988 7.2508 2.54114C6.87221 2.70921 6.42906 2.53856 6.261 2.15997C6.09293 1.78139 6.26358 1.33824 6.64217 1.17017C6.80267 1.09892 6.96526 1.03147 7.12981 0.967952C7.51623 0.818785 7.95041 1.01112 8.09958 1.39754ZM4.6477 3.24026C4.93337 3.54021 4.92178 4.01495 4.62183 4.30061C4.51216 4.40506 4.40505 4.51216 4.30061 4.62183C4.01495 4.92178 3.54021 4.93337 3.24026 4.6477C2.94031 4.36204 2.92873 3.88731 3.21439 3.58736C3.33566 3.46003 3.46002 3.33566 3.58736 3.21439C3.88731 2.92873 4.36204 2.94031 4.6477 3.24026ZM2.15997 6.261C2.53856 6.42907 2.70921 6.87221 2.54114 7.2508C2.47988 7.38879 2.42191 7.52855 2.36731 7.66999C2.21814 8.05641 1.78396 8.24874 1.39754 8.09958C1.01112 7.95041 0.818784 7.51623 0.967951 7.12981C1.03147 6.96526 1.09892 6.80267 1.17017 6.64217C1.33824 6.26358 1.78139 6.09293 2.15997 6.261ZM1.02109 10.004C1.43518 10.0141 1.76276 10.3579 1.75275 10.7719C1.75092 10.8477 1.75 10.9237 1.75 11C1.75 11.0763 1.75092 11.1523 1.75275 11.2281C1.76276 11.6421 1.43518 11.9859 1.02109 11.996C0.606993 12.006 0.263194 11.6784 0.25319 11.2643C0.251067 11.1764 0.25 11.0883 0.25 11C0.25 10.9117 0.251067 10.8236 0.25319 10.7357C0.263194 10.3216 0.606993 9.99404 1.02109 10.004ZM20.6025 13.9004C20.9889 14.0496 21.1812 14.4838 21.032 14.8702C20.9685 15.0347 20.9011 15.1973 20.8298 15.3578C20.6618 15.7364 20.2186 15.9071 19.84 15.739C19.4614 15.5709 19.2908 15.1278 19.4589 14.7492C19.5201 14.6112 19.5781 14.4714 19.6327 14.33C19.7819 13.9436 20.216 13.7513 20.6025 13.9004ZM1.39754 13.9004C1.78396 13.7513 2.21814 13.9436 2.36731 14.33C2.42191 14.4714 2.47988 14.6112 2.54114 14.7492C2.70921 15.1278 2.53856 15.5709 2.15997 15.739C1.78139 15.9071 1.33824 15.7364 1.17017 15.3578C1.09892 15.1973 1.03147 15.0347 0.967952 14.8702C0.818785 14.4838 1.01112 14.0496 1.39754 13.9004ZM18.7597 17.3523C19.0597 17.638 19.0713 18.1127 18.7856 18.4126C18.6643 18.54 18.54 18.6643 18.4126 18.7856C18.1127 19.0713 17.638 19.0597 17.3523 18.7597C17.0666 18.4598 17.0782 17.9851 17.3782 17.6994C17.4878 17.5949 17.5949 17.4878 17.6994 17.3782C17.9851 17.0782 18.4598 17.0666 18.7597 17.3523ZM3.24026 17.3523C3.54021 17.0666 4.01495 17.0782 4.30061 17.3782C4.40506 17.4878 4.51216 17.5949 4.62183 17.6994C4.92178 17.9851 4.93337 18.4598 4.6477 18.7597C4.36204 19.0597 3.88731 19.0713 3.58736 18.7856C3.46003 18.6643 3.33566 18.54 3.21439 18.4126C2.92873 18.1127 2.94031 17.638 3.24026 17.3523ZM6.261 19.84C6.42907 19.4614 6.87221 19.2908 7.2508 19.4589C7.38879 19.5201 7.52855 19.5781 7.66999 19.6327C8.05641 19.7819 8.24874 20.216 8.09958 20.6025C7.95041 20.9889 7.51623 21.1812 7.12981 21.032C6.96526 20.9685 6.80267 20.9011 6.64217 20.8298C6.26358 20.6618 6.09293 20.2186 6.261 19.84ZM15.739 19.84C15.9071 20.2186 15.7364 20.6618 15.3578 20.8298C15.1973 20.9011 15.0347 20.9685 14.8702 21.032C14.4838 21.1812 14.0496 20.9889 13.9004 20.6025C13.7513 20.216 13.9436 19.7819 14.33 19.6327C14.4714 19.5781 14.6112 19.5201 14.7492 19.4589C15.1278 19.2908 15.5709 19.4614 15.739 19.84ZM10.004 20.9789C10.0141 20.5648 10.3579 20.2372 10.7719 20.2472C10.8477 20.2491 10.9237 20.25 11 20.25C11.0763 20.25 11.1523 20.2491 11.2281 20.2472C11.6421 20.2372 11.9859 20.5648 11.996 20.9789C12.006 21.393 11.6784 21.7368 11.2643 21.7468C11.1764 21.7489 11.0883 21.75 11 21.75C10.9117 21.75 10.8236 21.7489 10.7357 21.7468C10.3216 21.7368 9.99404 21.393 10.004 20.9789Z" fill="#5C008A"/>
<path fill-rule="evenodd" clip-rule="evenodd" d="M10.25 1C10.25 0.585786 10.5858 0.25 11 0.25C16.9371 0.25 21.75 5.06294 21.75 11C21.75 11.4142 21.4142 11.75 21 11.75C20.5858 11.75 20.25 11.4142 20.25 11C20.25 5.89137 16.1086 1.75 11 1.75C10.5858 1.75 10.25 1.41421 10.25 1ZM11 7.25C11.4142 7.25 11.75 7.58579 11.75 8V11.25H15C15.4142 11.25 15.75 11.5858 15.75 12C15.75 12.4142 15.4142 12.75 15 12.75H11C10.5858 12.75 10.25 12.4142 10.25 12V8C10.25 7.58579 10.5858 7.25 11 7.25Z" fill="#5C008A"/>
</svg>
