<svg width="22" height="21" viewBox="0 0 22 21" fill="none" xmlns="http://www.w3.org/2000/svg">
<path fill-rule="evenodd" clip-rule="evenodd" d="M15.25 1.75V3.43953L17.25 5.03953V1.75H15.25ZM18.75 6.23953V1.5C18.75 0.809644 18.1904 0.25 17.5 0.25H15C14.3097 0.25 13.75 0.809644 13.75 1.5V2.23953L13.3426 1.91362C11.9731 0.817961 10.027 0.817961 8.65742 1.91362L0.531506 8.41435C0.20806 8.67311 0.155619 9.14507 0.414376 9.46852C0.673133 9.79197 1.1451 9.84441 1.46855 9.58565L2.25003 8.96047V19.25H1.00003C0.585814 19.25 0.250028 19.5858 0.250028 20C0.250028 20.4142 0.585814 20.75 1.00003 20.75H21C21.4142 20.75 21.75 20.4142 21.75 20C21.75 19.5858 21.4142 19.25 21 19.25H19.75V8.96047L20.5315 9.58565C20.855 9.84441 21.3269 9.79197 21.5857 9.46852C21.8444 9.14507 21.792 8.67311 21.4685 8.41435L18.75 6.23953ZM18.25 7.76047L12.4056 3.08492C11.5838 2.42753 10.4162 2.42753 9.59446 3.08492L3.75003 7.76047V19.25H7.25003L7.25003 14.9506C7.24999 14.2858 7.24996 13.7129 7.31163 13.2542C7.37773 12.7625 7.52679 12.2913 7.90904 11.909C8.29128 11.5268 8.76255 11.3777 9.25418 11.3116C9.71293 11.2499 10.2858 11.25 10.9507 11.25H11.0494C11.7143 11.25 12.2871 11.2499 12.7459 11.3116C13.2375 11.3777 13.7088 11.5268 14.091 11.909C14.4733 12.2913 14.6223 12.7625 14.6884 13.2542C14.7501 13.7129 14.7501 14.2858 14.75 14.9506L14.75 19.25H18.25V7.76047ZM13.25 19.25V15C13.25 14.2717 13.2484 13.8009 13.2018 13.454C13.1581 13.1287 13.0875 13.0268 13.0304 12.9697C12.9733 12.9126 12.8713 12.842 12.546 12.7982C12.1991 12.7516 11.7283 12.75 11 12.75C10.2717 12.75 9.80093 12.7516 9.45406 12.7982C9.12875 12.842 9.02679 12.9126 8.9697 12.9697C8.9126 13.0268 8.84199 13.1287 8.79826 13.454C8.75162 13.8009 8.75003 14.2717 8.75003 15V19.25H13.25ZM11 6.25C10.3097 6.25 9.75003 6.80964 9.75003 7.5C9.75003 8.19036 10.3097 8.75 11 8.75C11.6904 8.75 12.25 8.19036 12.25 7.5C12.25 6.80964 11.6904 6.25 11 6.25ZM8.25003 7.5C8.25003 5.98122 9.48124 4.75 11 4.75C12.5188 4.75 13.75 5.98122 13.75 7.5C13.75 9.01878 12.5188 10.25 11 10.25C9.48124 10.25 8.25003 9.01878 8.25003 7.5Z" fill="#5C008A"/>
</svg>
