<svg width="22" height="19" viewBox="0 0 22 19" fill="none" xmlns="http://www.w3.org/2000/svg">
<path fill-rule="evenodd" clip-rule="evenodd" d="M9.38787 0.25H12.6121C13.6973 0.249983 14.5784 0.249969 15.2872 0.334729C16.0262 0.4231 16.6608 0.611195 17.2155 1.04423C17.7701 1.47727 18.1065 2.04733 18.3715 2.74284C18.6256 3.40994 18.8393 4.26472 19.1025 5.31749L19.5856 7.25H21C21.4142 7.25 21.75 7.58579 21.75 8C21.75 8.41422 21.4142 8.75 21 8.75H19.0157C19.0048 8.75024 18.994 8.75024 18.9832 8.75H3.01681C3.00601 8.75024 2.99518 8.75024 2.98432 8.75H1C0.585786 8.75 0.25 8.41422 0.25 8C0.25 7.58579 0.585786 7.25 1 7.25H2.41442L2.89754 5.31749C3.16072 4.26472 3.3744 3.40994 3.62854 2.74284C3.89351 2.04733 4.22991 1.47727 4.78453 1.04423C5.33916 0.611195 5.97379 0.4231 6.7128 0.334729C7.42162 0.249969 8.3027 0.249983 9.38787 0.25ZM3.96058 7.25H18.0394L17.6586 5.72669C17.3813 4.61763 17.1882 3.85038 16.9697 3.27686C16.7584 2.72218 16.5515 2.42889 16.2923 2.22654C16.0332 2.02419 15.6985 1.89459 15.1091 1.82412C14.4997 1.75125 13.7085 1.75 12.5653 1.75H9.43466C8.29147 1.75 7.50029 1.75125 6.8909 1.82412C6.30154 1.89459 5.96681 2.02419 5.70765 2.22654C5.44849 2.42889 5.24158 2.72218 5.03027 3.27686C4.81177 3.85038 4.61867 4.61763 4.34141 5.72669L3.96058 7.25ZM5.5 11.75C3.98122 11.75 2.75 12.9812 2.75 14.5C2.75 16.0188 3.98122 17.25 5.5 17.25C7.01878 17.25 8.25 16.0188 8.25 14.5C8.25 12.9812 7.01878 11.75 5.5 11.75ZM1.25 14.5C1.25 12.1528 3.15279 10.25 5.5 10.25C7.45789 10.25 9.10656 11.5739 9.59961 13.3754C10.4979 13.0137 11.5021 13.0137 12.4004 13.3754C12.8934 11.5739 14.5421 10.25 16.5 10.25C18.8472 10.25 20.75 12.1528 20.75 14.5C20.75 16.8472 18.8472 18.75 16.5 18.75C14.314 18.75 12.5134 17.0995 12.2764 14.9767L12.0062 14.8416C11.3728 14.5249 10.6272 14.5249 9.99377 14.8416L9.72356 14.9767C9.4866 17.0995 7.68604 18.75 5.5 18.75C3.15279 18.75 1.25 16.8472 1.25 14.5ZM16.5 11.75C14.9812 11.75 13.75 12.9812 13.75 14.5C13.75 16.0188 14.9812 17.25 16.5 17.25C18.0188 17.25 19.25 16.0188 19.25 14.5C19.25 12.9812 18.0188 11.75 16.5 11.75Z" fill="#5C008A"/>
</svg>
