<svg width="35" height="34" viewBox="0 0 35 34" fill="none" xmlns="http://www.w3.org/2000/svg">
<path d="M13.4764 3.7884C14.7184 3.17603 16.1078 2.83337 17.5742 2.83337C22.8548 2.83337 27.1355 7.27637 27.1355 12.7571V13.7553C27.1355 14.9532 27.4771 16.1243 28.1173 17.121L29.6862 19.5635C31.1192 21.7945 30.0252 24.827 27.5329 25.5325C21.0128 27.3781 14.1356 27.3781 7.61557 25.5325C5.1232 24.827 4.02922 21.7945 5.46223 19.5635L7.0311 17.121C7.67132 16.1243 8.01295 14.9532 8.01295 13.7553V12.7571C8.01295 11.235 8.34309 9.79302 8.9331 8.50397" stroke="black" stroke-width="1.5" stroke-linecap="round"/>
<path d="M11.1992 26.9166C12.1272 29.3927 14.631 31.1666 17.5742 31.1666C17.9206 31.1666 18.2608 31.1421 18.5931 31.0947M23.9492 26.9166C23.5709 27.9261 22.9306 28.8189 22.1054 29.5224" stroke="black" stroke-width="1.5" stroke-linecap="round"/>
</svg>
