<svg width="35" height="34" viewBox="0 0 35 34" fill="none" xmlns="http://www.w3.org/2000/svg">
<rect x="0.574219" width="34" height="34" rx="17" fill="#FFD30F"/>
<path d="M17.5742 6.16663V7.24996" stroke="black" stroke-width="1.5" stroke-linecap="round"/>
<path d="M17.5742 26.75V27.8333" stroke="black" stroke-width="1.5" stroke-linecap="round"/>
<path d="M28.4075 17L27.3242 17" stroke="black" stroke-width="1.5" stroke-linecap="round"/>
<path d="M7.82422 17L6.74089 17" stroke="black" stroke-width="1.5" stroke-linecap="round"/>
<path d="M25.2343 9.33997L24.8087 9.76554" stroke="black" stroke-width="1.5" stroke-linecap="round"/>
<path d="M10.3395 24.2347L9.9139 24.6603" stroke="black" stroke-width="1.5" stroke-linecap="round"/>
<path d="M25.2343 24.66L24.8087 24.2345" stroke="black" stroke-width="1.5" stroke-linecap="round"/>
<path d="M10.3395 9.76526L9.9139 9.33969" stroke="black" stroke-width="1.5" stroke-linecap="round"/>
<path d="M11.4441 14.8333C11.2046 15.511 11.0742 16.2403 11.0742 17C11.0742 20.5899 13.9844 23.5 17.5742 23.5C21.1641 23.5 24.0742 20.5899 24.0742 17C24.0742 13.4101 21.1641 10.5 17.5742 10.5C16.8145 10.5 16.0852 10.6303 15.4076 10.8699" stroke="black" stroke-width="1.5" stroke-linecap="round"/>
</svg>
