<svg width="24" height="25" viewBox="0 0 24 25" fill="none" xmlns="http://www.w3.org/2000/svg">
<circle cx="12" cy="6.26562" r="4" stroke="black" stroke-width="1.5"/>
<path d="M18 9.26562C19.6569 9.26562 21 8.14634 21 6.76562C21 5.38491 19.6569 4.26562 18 4.26562" stroke="black" stroke-width="1.5" stroke-linecap="round"/>
<path d="M6 9.26562C4.34315 9.26562 3 8.14634 3 6.76562C3 5.38491 4.34315 4.26562 6 4.26562" stroke="black" stroke-width="1.5" stroke-linecap="round"/>
<path d="M17.1973 15.2656C17.7078 15.854 18 16.5371 18 17.2656C18 19.4748 15.3137 21.2656 12 21.2656C8.68629 21.2656 6 19.4748 6 17.2656C6 15.0565 8.68629 13.2656 12 13.2656C12.3407 13.2656 12.6748 13.2846 13 13.3209" stroke="black" stroke-width="1.5" stroke-linecap="round"/>
<path d="M20 19.2656C21.7542 18.8809 23 17.9067 23 16.7656C23 15.6246 21.7542 14.6503 20 14.2656" stroke="black" stroke-width="1.5" stroke-linecap="round"/>
<path d="M4 19.2656C2.24575 18.8809 1 17.9067 1 16.7656C1 15.6246 2.24575 14.6503 4 14.2656" stroke="black" stroke-width="1.5" stroke-linecap="round"/>
</svg>
