<svg width="24" height="25" viewBox="0 0 24 25" fill="none" xmlns="http://www.w3.org/2000/svg">
<path d="M22 22.2656L2 22.2656" stroke="black" stroke-width="1.5" stroke-linecap="round"/>
<path d="M2 11.2657L6.06296 8.0153M22 11.2657L13.8741 4.76494C12.7784 3.88841 11.2216 3.88841 10.1259 4.76494L9.34398 5.39048" stroke="black" stroke-width="1.5" stroke-linecap="round"/>
<path d="M15.5 5.76562V3.76562C15.5 3.48948 15.7239 3.26562 16 3.26562H18.5C18.7761 3.26562 19 3.48948 19 3.76562V8.76562" stroke="black" stroke-width="1.5" stroke-linecap="round"/>
<path d="M4 22.2656V9.76562" stroke="black" stroke-width="1.5" stroke-linecap="round"/>
<path d="M20 9.76562V13.7656M20 22.2656V17.7656" stroke="black" stroke-width="1.5" stroke-linecap="round"/>
<path d="M15 22.2656V17.2656C15 15.8514 15 15.1443 14.5607 14.705C14.1213 14.2656 13.4142 14.2656 12 14.2656C10.5858 14.2656 9.87868 14.2656 9.43934 14.705M9 22.2656V17.2656" stroke="black" stroke-width="1.5" stroke-linecap="round" stroke-linejoin="round"/>
<path d="M14 9.76562C14 10.8702 13.1046 11.7656 12 11.7656C10.8954 11.7656 10 10.8702 10 9.76562C10 8.66106 10.8954 7.76562 12 7.76562C13.1046 7.76562 14 8.66106 14 9.76562Z" stroke="black" stroke-width="1.5"/>
</svg>
