<svg width="24" height="25" viewBox="0 0 24 25" fill="none" xmlns="http://www.w3.org/2000/svg">
<path d="M8 10.7656H16" stroke="black" stroke-width="1.5" stroke-linecap="round"/>
<path d="M8 14.2656H13.5" stroke="black" stroke-width="1.5" stroke-linecap="round"/>
<path d="M17 3.60345C15.5291 2.7526 13.8214 2.26562 12 2.26562C6.47715 2.26562 2 6.74278 2 12.2656C2 13.8653 2.37562 15.3773 3.04346 16.7181C3.22094 17.0744 3.28001 17.4817 3.17712 17.8662L2.58151 20.0923C2.32295 21.0586 3.20701 21.9427 4.17335 21.6841L6.39939 21.0885C6.78393 20.9856 7.19121 21.0447 7.54753 21.2222C8.88837 21.89 10.4003 22.2656 12 22.2656C17.5228 22.2656 22 17.7885 22 12.2656C22 10.4442 21.513 8.73649 20.6622 7.26562" stroke="black" stroke-width="1.5" stroke-linecap="round"/>
</svg>
