<svg width="24" height="25" viewBox="0 0 24 25" fill="none" xmlns="http://www.w3.org/2000/svg">
<path d="M21 17.7656C21 19.6986 19.433 21.2656 17.5 21.2656C15.567 21.2656 14 19.6986 14 17.7656C14 15.8326 15.567 14.2656 17.5 14.2656C19.433 14.2656 21 15.8326 21 17.7656Z" stroke="black" stroke-width="1.5"/>
<path d="M2 11.2656H14M22 11.2656H18" stroke="black" stroke-width="1.5" stroke-linecap="round"/>
<path d="M4 11.2656L4.6138 8.81041C5.15947 6.62773 5.43231 5.53639 6.24609 4.90101C7.0057 4.30793 8.03639 4.26844 10 4.26581M20 11.2656L19.3862 8.81041C18.8405 6.62773 18.5677 5.53639 17.7539 4.90101C16.9943 4.30793 15.9636 4.26844 14 4.26581" stroke="black" stroke-width="1.5" stroke-linecap="round"/>
<path d="M10 17.7656C10 19.6986 8.433 21.2656 6.5 21.2656C4.567 21.2656 3 19.6986 3 17.7656C3 15.8326 4.567 14.2656 6.5 14.2656C8.433 14.2656 10 15.8326 10 17.7656Z" stroke="black" stroke-width="1.5"/>
<path d="M10 17.7655L10.6584 17.4363C11.5029 17.0141 12.4971 17.0141 13.3416 17.4363L14 17.7655" stroke="black" stroke-width="1.5" stroke-linecap="round"/>
</svg>
