<svg width="24" height="25" viewBox="0 0 24 25" fill="none" xmlns="http://www.w3.org/2000/svg">
<circle cx="12" cy="12.2656" r="3" stroke="black" stroke-width="1.5"/>
<path d="M3.66122 10.9048C4.13377 11.2017 4.43782 11.7075 4.43782 12.2656C4.43781 12.8236 4.13376 13.3294 3.66122 13.6263C3.33966 13.8284 3.13248 13.9899 2.98508 14.182C2.66217 14.6028 2.51966 15.1346 2.5889 15.6605C2.64082 16.055 2.87379 16.4585 3.33973 17.2655C3.80568 18.0725 4.03865 18.4761 4.35426 18.7182C4.77508 19.0411 5.30694 19.1837 5.83284 19.1144C6.07287 19.0828 6.31628 18.9842 6.65196 18.8068C7.14544 18.5459 7.73558 18.5355 8.21895 18.8146C8.70227 19.0937 8.98827 19.6099 9.00912 20.1677C9.02332 20.5471 9.05958 20.8073 9.15224 21.031C9.35523 21.521 9.74458 21.9104 10.2346 22.1134C10.6022 22.2656 11.0681 22.2656 12 22.2656C12.9319 22.2656 13.3978 22.2656 13.7654 22.1134C14.2554 21.9104 14.6448 21.521 14.8478 21.031C14.9404 20.8073 14.9767 20.5471 14.9909 20.1677C15.0117 19.61 15.2977 19.0937 15.7811 18.8147C16.2644 18.5356 16.8545 18.546 17.3479 18.8068C17.6837 18.9843 17.9271 19.0829 18.1671 19.1145C18.693 19.1838 19.2249 19.0413 19.6457 18.7184C19.9613 18.4762 20.1943 18.0727 20.6603 17.2656C20.8677 16.9063 21.029 16.627 21.1486 16.3929M20.3387 13.6264C19.8662 13.3295 19.5622 12.8238 19.5621 12.2657C19.5621 11.7076 19.8662 11.2017 20.3387 10.9048C20.6603 10.7028 20.8674 10.5413 21.0148 10.3492C21.3377 9.9284 21.4802 9.39654 21.411 8.87065C21.3591 8.47623 21.1261 8.07271 20.6601 7.26567C20.1942 6.45864 19.9612 6.05512 19.6456 5.81294C19.2248 5.49004 18.6929 5.34752 18.167 5.41676C17.927 5.44836 17.6836 5.54703 17.3479 5.72446C16.8544 5.98526 16.2643 5.99567 15.781 5.71658C15.2977 5.43753 15.0117 4.92132 14.9909 4.36365C14.9767 3.98414 14.9404 3.72397 14.8478 3.50026C14.6448 3.0102 14.2554 2.62085 13.7654 2.41787C13.3978 2.26562 12.9319 2.26562 12 2.26563C11.0681 2.26563 10.6022 2.26563 10.2346 2.41787C9.74458 2.62085 9.35523 3.0102 9.15224 3.50026C9.05958 3.72395 9.02332 3.9841 9.00912 4.36356C8.98826 4.92129 8.70225 5.43753 8.21891 5.71659C7.73557 5.99564 7.14548 5.98522 6.65205 5.72442C6.31633 5.54698 6.0729 5.44831 5.83285 5.41671C5.30695 5.34747 4.77509 5.48999 4.35427 5.81289C4.03866 6.05507 3.80569 6.45859 3.33974 7.26562C3.13231 7.62491 2.97105 7.90422 2.85138 8.13836" stroke="black" stroke-width="1.5" stroke-linecap="round"/>
</svg>
