<svg width="24" height="25" viewBox="0 0 24 25" fill="none" xmlns="http://www.w3.org/2000/svg">
<path d="M10.125 9.14062C10.125 8.10509 10.9645 7.26562 12 7.26562C13.0355 7.26562 13.875 8.10509 13.875 9.14062C13.875 9.82807 13.505 10.4291 12.9534 10.7555C12.478 11.0367 12 11.4633 12 12.0156V13.2656" stroke="black" stroke-width="1.5" stroke-linecap="round"/>
<circle cx="12" cy="16.2656" r="1" fill="black"/>
<path d="M22 12.2656C22 16.9797 22 19.3367 20.5355 20.8012C19.0711 22.2656 16.714 22.2656 12 22.2656C7.28595 22.2656 4.92893 22.2656 3.46447 20.8012C2 19.3367 2 16.9797 2 12.2656C2 7.55158 2 5.19456 3.46447 3.73009C4.92893 2.26562 7.28595 2.26562 12 2.26562C16.714 2.26562 19.0711 2.26562 20.5355 3.73009C21.5093 4.70383 21.8356 6.07218 21.9449 8.26562" stroke="black" stroke-width="1.5" stroke-linecap="round"/>
</svg>
